<svg width="32" height="40" viewBox="0 0 32 40" fill="none" xmlns="http://www.w3.org/2000/svg">
<path d="M16 20C17.1 20 18.042 19.608 18.826 18.824C19.6087 18.0413 20 17.1 20 16C20 14.9 19.6087 13.958 18.826 13.174C18.042 12.3913 17.1 12 16 12C14.9 12 13.9587 12.3913 13.176 13.174C12.392 13.958 12 14.9 12 16C12 17.1 12.392 18.0413 13.176 18.824C13.9587 19.608 14.9 20 16 20ZM16 40C10.6333 35.4333 6.62533 31.1913 3.976 27.274C1.32533 23.358 0 19.7333 0 16.4C0 11.4 1.60867 7.41667 4.826 4.45C8.042 1.48333 11.7667 0 16 0C20.2333 0 23.958 1.48333 27.174 4.45C30.3913 7.41667 32 11.4 32 16.4C32 19.7333 30.6753 23.358 28.026 27.274C25.3753 31.1913 21.3667 35.4333 16 40Z" fill="#33D5BE"/>
</svg>
