<svg width="13" height="21" viewBox="0 0 13 21" fill="none" xmlns="http://www.w3.org/2000/svg">
<path d="M4.80435 0.890283L12.1522 8.46158C12.4348 8.75278 12.6467 9.06825 12.788 9.40799C12.9293 9.74772 13 10.1117 13 10.5C13 10.8883 12.9293 11.2523 12.788 11.592C12.6467 11.9318 12.4348 12.2472 12.1522 12.5384L4.80435 20.1097C3.90942 21.0319 2.88543 21.2376 1.73239 20.7271C0.577461 20.2184 -2.21769e-06 19.3089 -2.10313e-06 17.9985L-7.92049e-07 3.00151C-6.77489e-07 1.69109 0.577463 0.781567 1.73239 0.272932C2.88543 -0.237645 3.90942 -0.0318615 4.80435 0.890283V0.890283Z" fill="#4C4840"/>
</svg>
