<svg width="40" height="23" viewBox="0 0 40 23" fill="none" xmlns="http://www.w3.org/2000/svg">
<path d="M0.791557 18.4424L18.5224 0.582948C18.7335 0.370966 18.9622 0.221166 19.2084 0.133547C19.4547 0.0445147 19.7186 -8.8653e-07 20 -8.74228e-07C20.2814 -8.61926e-07 20.5453 0.0445147 20.7916 0.133547C21.0378 0.221166 21.2665 0.370966 21.4776 0.582948L39.2612 18.4424C39.7537 18.937 40 19.5553 40 20.2972C40 21.0392 39.7361 21.6751 39.2084 22.2051C38.6807 22.735 38.0651 23 37.3615 23C36.6579 23 36.0422 22.735 35.5145 22.2051L20 6.62442L4.48549 22.2051C3.99296 22.6997 3.38645 22.947 2.66596 22.947C1.94406 22.947 1.31926 22.682 0.791556 22.1521C0.26385 21.6221 -9.18107e-07 21.0038 -8.87221e-07 20.2972C-8.56334e-07 19.5906 0.26385 18.9724 0.791557 18.4424Z" fill="#33D5BE"/>
</svg>
