<svg width="12" height="9" viewBox="0 0 12 9" fill="none" xmlns="http://www.w3.org/2000/svg">
<path d="M4.18852 8.92651L0.0748584 4.83077C0.0511342 4.80716 0.0323074 4.77908 0.0194605 4.74816C0.00661358 4.71724 0 4.68408 0 4.65059C0 4.6171 0.00661358 4.58394 0.0194605 4.55301C0.0323074 4.52209 0.0511342 4.49402 0.0748584 4.4704L1.11337 3.42972C1.21261 3.33039 1.373 3.33039 1.47223 3.42972L4.18044 6.12441C4.27968 6.22374 4.44122 6.22258 4.54046 6.12325L10.5246 0.0755108C10.6238 -0.0249769 10.7854 -0.0249769 10.8858 0.0743557L11.9254 1.11504C12.0247 1.21437 12.0247 1.37492 11.9266 1.47425L5.40704 8.05908L5.40819 8.06024L4.54853 8.92535C4.4493 9.02469 4.28775 9.02469 4.18852 8.92651Z" fill="white"/>
</svg>
