<svg width="48" height="47" viewBox="0 0 48 47" fill="none" xmlns="http://www.w3.org/2000/svg">
<path d="M31.5 23.4808C31.5 25.4269 30.7098 27.2933 29.3033 28.6694C27.8968 30.0455 25.9891 30.8186 24 30.8186C22.0109 30.8186 20.1032 30.0455 18.6967 28.6694C17.2902 27.2933 16.5 25.4269 16.5 23.4808C16.5 23.0626 16.545 22.6541 16.6225 22.2579H14V32.0342C14 32.7142 14.5625 33.2645 15.2575 33.2645H32.745C33.0781 33.2638 33.3973 33.1339 33.6326 32.9033C33.8679 32.6726 34 32.3601 34 32.0342V22.2579H31.3775C31.455 22.6541 31.5 23.0626 31.5 23.4808ZM24 28.3727C24.6568 28.3725 25.3071 28.2458 25.9138 27.9997C26.5205 27.7537 27.0718 27.3931 27.5361 26.9386C28.0003 26.4842 28.3686 25.9447 28.6198 25.351C28.871 24.7572 29.0002 24.1209 29 23.4784C28.9998 22.8358 28.8703 22.1996 28.6188 21.606C28.3673 21.0124 27.9988 20.4731 27.5343 20.0188C27.0698 19.5646 26.5183 19.2043 25.9115 18.9585C25.3046 18.7128 24.6543 18.5864 23.9975 18.5865C22.6711 18.5869 21.3991 19.1027 20.4614 20.0205C19.5238 20.9384 18.9972 22.1831 18.9975 23.4808C18.9978 24.7785 19.5251 26.023 20.4632 26.9404C21.4014 27.8578 22.6736 28.373 24 28.3727ZM30 18.3444H32.9975C33.1966 18.3444 33.3877 18.2672 33.5287 18.1296C33.6698 17.9921 33.7493 17.8054 33.75 17.6106V14.678C33.75 14.4827 33.6707 14.2954 33.5296 14.1574C33.3885 14.0193 33.1971 13.9417 32.9975 13.9417H30C29.8004 13.9417 29.609 14.0193 29.4679 14.1574C29.3268 14.2954 29.2475 14.4827 29.2475 14.678V17.6106C29.25 18.0142 29.5875 18.3444 30 18.3444ZM24 0C17.6348 0 11.5303 2.47386 7.02944 6.87737C2.52856 11.2809 0 17.2533 0 23.4808C0 29.7083 2.52856 35.6808 7.02944 40.0843C11.5303 44.4878 17.6348 46.9616 24 46.9616C27.1517 46.9616 30.2726 46.3543 33.1844 45.1743C36.0962 43.9942 38.742 42.2647 40.9706 40.0843C43.1992 37.9039 44.967 35.3154 46.1731 32.4665C47.3792 29.6177 48 26.5644 48 23.4808C48 20.3973 47.3792 17.3439 46.1731 14.4951C44.967 11.6463 43.1992 9.05777 40.9706 6.87737C38.742 4.69698 36.0962 2.96739 33.1844 1.78737C30.2726 0.607349 27.1517 0 24 0ZM36.5 32.993C36.5 34.4874 35.25 35.7104 33.7225 35.7104H14.2775C12.75 35.7104 11.5 34.4874 11.5 32.993V13.9686C11.5 12.4742 12.75 11.2512 14.2775 11.2512H33.7225C35.25 11.2512 36.5 12.4742 36.5 13.9686V32.993Z" fill="#33D5BE"/>
</svg>
