<svg width="23" height="18" viewBox="0 0 23 18" fill="none" xmlns="http://www.w3.org/2000/svg">
<path d="M2.25 18C1.63125 18 1.10175 17.7799 0.6615 17.3396C0.2205 16.8986 0 16.3687 0 15.75V2.25C0 1.63125 0.2205 1.10175 0.6615 0.6615C1.10175 0.2205 1.63125 0 2.25 0H20.25C20.8687 0 21.3986 0.2205 21.8396 0.6615C22.2799 1.10175 22.5 1.63125 22.5 2.25V15.75C22.5 16.3687 22.2799 16.8986 21.8396 17.3396C21.3986 17.7799 20.8687 18 20.25 18H2.25ZM11.25 9.92812C11.3438 9.92812 11.442 9.91387 11.5448 9.88538C11.6482 9.85763 11.7469 9.81563 11.8406 9.75938L19.8 4.78125C19.95 4.6875 20.0625 4.5705 20.1375 4.43025C20.2125 4.28925 20.25 4.13438 20.25 3.96563C20.25 3.59063 20.0906 3.30938 19.7719 3.12188C19.4531 2.93438 19.125 2.94375 18.7875 3.15L11.25 7.875L3.7125 3.15C3.375 2.94375 3.04688 2.93888 2.72813 3.13538C2.40938 3.33263 2.25 3.60938 2.25 3.96563C2.25 4.15313 2.2875 4.317 2.3625 4.45725C2.4375 4.59825 2.55 4.70625 2.7 4.78125L10.6594 9.75938C10.7531 9.81563 10.8518 9.85763 10.9552 9.88538C11.058 9.91387 11.1562 9.92812 11.25 9.92812Z" fill="#4C4840"/>
</svg>
