<svg width="18" height="18" viewBox="0 0 18 18" fill="none" xmlns="http://www.w3.org/2000/svg">
<path d="M16.9876 18C14.6478 18 12.4469 17.5575 10.3849 16.6725C8.32226 15.7875 6.52243 14.5764 4.98536 13.0392C3.4477 11.5014 2.23281 9.7014 1.34069 7.6392C0.447967 5.5764 0.001607 3.3675 0.001607 1.0125C-0.0133917 0.7425 0.0766003 0.5061 0.271583 0.3033C0.466565 0.1011 0.706544 0 0.991519 0H4.50121C4.77118 0 5.00366 0.1011 5.19864 0.3033C5.39363 0.5061 5.49112 0.75 5.49112 1.035C5.49112 1.695 5.53611 2.3175 5.62611 2.9025C5.7161 3.4875 5.85858 4.0425 6.05357 4.5675C6.12856 4.7325 6.14356 4.9011 6.09856 5.0733C6.05357 5.2461 5.96358 5.4075 5.82859 5.5575L3.57879 7.8075C4.22373 9.1275 5.13865 10.38 6.32354 11.565C7.50844 12.75 8.78332 13.695 10.1482 14.4L12.398 12.15C12.533 12.015 12.6905 11.925 12.8705 11.88C13.0504 11.835 13.2304 11.85 13.4104 11.925C13.9654 12.105 14.5389 12.2436 15.1311 12.3408C15.7238 12.4386 16.3351 12.4875 16.9651 12.4875C17.2501 12.4875 17.4939 12.5925 17.6967 12.8025C17.8989 13.0125 18 13.2675 18 13.5675V17.01C18 17.28 17.9025 17.5125 17.7075 17.7075C17.5125 17.9025 17.2726 18 16.9876 18ZM16.2002 9C16.2002 6.99 15.5027 5.2875 14.1078 3.8925C12.713 2.4975 11.0106 1.8 9.0008 1.8V0C10.2457 0 11.4156 0.2361 12.5105 0.7083C13.6054 1.1811 14.5578 1.8225 15.3677 2.6325C16.1777 3.4425 16.8187 4.395 17.2909 5.49C17.7636 6.585 18 7.755 18 9H16.2002ZM12.6005 9C12.6005 8.01 12.248 7.1625 11.5431 6.4575C10.8381 5.7525 9.99072 5.4 9.0008 5.4V3.6C10.5007 3.6 11.7756 4.125 12.8255 5.175C13.8754 6.225 14.4003 7.5 14.4003 9H12.6005Z" fill="#4C4840"/>
</svg>
