<svg width="49" height="47" viewBox="0 0 49 47" fill="none" xmlns="http://www.w3.org/2000/svg">
<path d="M24.5 0C10.976 0 0 10.528 0 23.5C0 36.472 10.976 47 24.5 47C38.024 47 49 36.472 49 23.5C49 10.528 38.024 0 24.5 0ZM35.868 15.98C35.5005 19.693 33.908 28.717 33.0995 32.8765C32.7565 34.639 32.0705 35.2265 31.4335 35.297C30.0125 35.4145 28.9345 34.404 27.5625 33.5345C25.4065 32.1715 24.1815 31.3255 22.099 30.0095C19.6735 28.482 21.2415 27.636 22.638 26.273C23.0055 25.9205 29.2775 20.445 29.4 19.9515C29.417 19.8768 29.4148 19.7992 29.3934 19.7254C29.3721 19.6517 29.3323 19.5841 29.2775 19.5285C29.1305 19.411 28.9345 19.458 28.763 19.4815C28.5425 19.5285 25.1125 21.714 18.424 26.038C17.444 26.6725 16.562 27.0015 15.778 26.978C14.896 26.9545 13.23 26.508 11.9805 26.1085C10.437 25.6385 9.2365 25.38 9.3345 24.5575C9.3835 24.1345 9.996 23.7115 11.1475 23.265C18.3015 20.2805 23.0545 18.3065 25.431 17.3665C32.242 14.6405 33.6385 14.1705 34.5695 14.1705C34.7655 14.1705 35.231 14.2175 35.525 14.4525C35.77 14.6405 35.8435 14.899 35.868 15.087C35.8435 15.228 35.8925 15.651 35.868 15.98Z" fill="#33D5BE"/>
</svg>
