<svg width="47" height="47" viewBox="0 0 47 47" fill="none" xmlns="http://www.w3.org/2000/svg">
<path d="M0.00943144 47L3.18663 35.3252C1.0931 31.7364 -0.00679298 27.6548 3.15657e-05 23.5C3.15657e-05 10.5209 10.521 0 23.5 0C36.4791 0 47 10.5209 47 23.5C47 36.479 36.4791 47 23.5 47C19.347 47.0067 15.2672 45.9076 11.6795 43.8157L0.00943144 47ZM15.0189 12.4738C14.7154 12.4926 14.4189 12.5726 14.147 12.7088C13.8921 12.8532 13.6594 13.0336 13.4561 13.2446C13.1741 13.5101 13.0143 13.7404 12.8428 13.9637C11.9742 15.094 11.5071 16.4815 11.515 17.907C11.5197 19.0585 11.8205 20.1794 12.2905 21.2275C13.2517 23.3472 14.8332 25.5915 16.9224 27.6712C17.4253 28.1718 17.9164 28.6747 18.4452 29.1423C21.0381 31.4253 24.1281 33.0716 27.4692 33.9504L28.8063 34.1549C29.2411 34.1784 29.6758 34.1455 30.1129 34.1243C30.7973 34.089 31.4656 33.9037 32.0705 33.5815C32.3782 33.423 32.6785 33.2504 32.9705 33.0645C32.9705 33.0645 33.0716 32.9987 33.2643 32.853C33.5815 32.618 33.7766 32.4511 34.0398 32.1762C34.2348 31.9741 34.404 31.7367 34.5333 31.4665C34.7166 31.0834 34.8999 30.3526 34.9751 29.7439C35.0315 29.2786 35.015 29.0248 35.008 28.8674C34.9986 28.6159 34.7894 28.3551 34.5615 28.2446L33.1938 27.6313C33.1938 27.6313 31.1493 26.7406 29.9014 26.1719C29.7698 26.1146 29.6288 26.0819 29.4855 26.0756C29.3247 26.0591 29.1622 26.0772 29.009 26.1286C28.8558 26.1801 28.7154 26.2638 28.5972 26.374V26.3693C28.5854 26.3693 28.428 26.5033 26.7289 28.5619C26.6314 28.6929 26.4971 28.792 26.3431 28.8464C26.189 28.9008 26.0223 28.9081 25.8641 28.8674C25.711 28.8264 25.561 28.7746 25.4153 28.7123C25.1239 28.5901 25.0228 28.5431 24.8231 28.4561L24.8113 28.4514C23.4669 27.8645 22.2221 27.0716 21.1218 26.1014C20.8257 25.8429 20.5508 25.5609 20.2688 25.2883C19.3442 24.4029 18.5385 23.4013 17.8718 22.3085L17.7331 22.0853C17.6335 21.9353 17.553 21.7734 17.4934 21.6035C17.4041 21.2581 17.6368 20.9808 17.6368 20.9808C17.6368 20.9808 18.2078 20.3557 18.4734 20.0173C18.6945 19.736 18.9008 19.4435 19.0914 19.1407C19.3687 18.6942 19.4557 18.236 19.31 17.8811C18.652 16.2737 17.9705 14.6734 17.2702 13.0848C17.1315 12.7699 16.7203 12.5443 16.3466 12.4996C16.2197 12.4855 16.0928 12.4714 15.9659 12.462C15.6503 12.4464 15.3341 12.4519 15.0189 12.4738Z" fill="#33D5BE"/>
</svg>
